<svg width="28" height="28" viewBox="0 0 28 28" fill="none" xmlns="http://www.w3.org/2000/svg">
<path d="M18.6429 26.2994C19.5411 26.2994 19.5411 27.6649 18.6429 27.6649H4.23942C3.04324 27.6649 2.06433 26.6854 2.06433 25.4895V5.78707C2.06433 4.58923 3.04158 3.61198 4.23942 3.61198H4.40676V1.01788C4.40676 0.640869 4.71234 0.334961 5.08935 0.334961H25.2531C25.6302 0.334961 25.9357 0.640869 25.9357 1.01788V21.3259C25.9357 21.7029 25.6302 22.0088 25.2531 22.0088H22.9828V23.9219C22.9828 24.8202 21.6173 24.8202 21.6173 23.9219V10.4273L17.2711 4.97749H4.23942C3.7956 4.97749 3.42984 5.34325 3.42984 5.78707V25.4895C3.42984 25.9357 3.79362 26.2994 4.23942 26.2994H18.6429ZM5.77227 3.61198H17.5982C17.8297 3.61198 18.034 3.72707 18.1574 3.903L22.8333 9.76652C22.9332 9.89186 22.9815 10.0417 22.9815 10.1905L22.9828 20.6433H24.5702V1.70047H5.77227V3.61198ZM6.10198 18.8869C5.20377 18.8869 5.20377 17.5214 6.10198 17.5214H16.7982C17.6961 17.5214 17.6961 18.8869 16.7982 18.8869H6.10198ZM6.17441 24.2348C5.2762 24.2348 5.2762 22.8693 6.17441 22.8693H16.8703C17.7685 22.8693 17.7685 24.2348 16.8703 24.2348H6.17441ZM6.17441 21.5607C5.2762 21.5607 5.2762 20.1952 6.17441 20.1952H16.8703C17.7685 20.1952 17.7685 21.5607 16.8703 21.5607H6.17441ZM8.48674 7.04179H11.6669C13.1964 7.04179 14.4455 8.29088 14.4455 9.82042V13.0005C14.4455 14.5301 13.1964 15.7792 11.6669 15.7792H8.48674C6.9572 15.7792 5.70844 14.5301 5.70844 13.0005V9.82042C5.70844 8.29088 6.9572 7.04179 8.48674 7.04179ZM11.6669 8.40762H8.48674C7.71123 8.40762 7.07395 9.0449 7.07395 9.82042V13.0005C7.07395 13.7761 7.71123 14.4137 8.48674 14.4137H11.6669C12.4427 14.4137 13.08 13.7761 13.08 13.0005V9.82042C13.08 9.0449 12.4424 8.40762 11.6669 8.40762Z" fill="black"/>
</svg>
