<svg width="24" height="24" viewBox="0 0 24 24" fill="none" xmlns="http://www.w3.org/2000/svg">
<path d="M14 9.19345C14 9.10519 14.0335 9.01448 14.1006 8.92131C14.1677 8.82816 14.2425 8.76687 14.325 8.73745C14.825 8.56145 15.3361 8.42545 15.8584 8.32945C16.3807 8.23345 16.9299 8.18545 17.5062 8.18545C17.8664 8.18545 18.2221 8.20545 18.5733 8.24545C18.9244 8.28545 19.2667 8.34545 19.6 8.42545C19.7 8.45745 19.7917 8.51661 19.875 8.60293C19.9583 8.68926 20 8.78639 20 8.89429C20 9.07773 19.9375 9.21745 19.8125 9.31345C19.6875 9.40945 19.5333 9.43345 19.35 9.38545C19.07 9.30545 18.775 9.24545 18.465 9.20545C18.155 9.16545 17.8333 9.14545 17.5 9.14545C17.0167 9.14545 16.55 9.18945 16.1 9.27745C15.65 9.36545 15.2083 9.49745 14.775 9.67345C14.5417 9.75345 14.3542 9.74945 14.2125 9.66145C14.0708 9.57345 14 9.41745 14 9.19345ZM14 14.4734C14 14.3806 14.0335 14.2851 14.1006 14.187C14.1677 14.0889 14.2425 14.0244 14.325 13.9934C14.825 13.8174 15.3361 13.6854 15.8584 13.5974C16.3807 13.5094 16.9299 13.4654 17.5062 13.4654C17.8664 13.4654 18.2221 13.4854 18.5733 13.5254C18.9244 13.5654 19.2667 13.6254 19.6 13.7054C19.7 13.7374 19.7917 13.7966 19.875 13.8829C19.9583 13.9693 20 14.0664 20 14.1743C20 14.3577 19.9375 14.4974 19.8125 14.5934C19.6875 14.6894 19.5333 14.7134 19.35 14.6654C19.07 14.5854 18.775 14.5254 18.465 14.4854C18.155 14.4454 17.8333 14.4254 17.5 14.4254C17.0167 14.4254 16.55 14.4654 16.1 14.5454C15.65 14.6254 15.2083 14.7534 14.775 14.9294C14.5417 15.0094 14.3542 15.0094 14.2125 14.9294C14.0708 14.8494 14 14.6974 14 14.4734ZM14 11.8334C14 11.7452 14.0335 11.6545 14.1006 11.5613C14.1677 11.4682 14.2425 11.4069 14.325 11.3774C14.825 11.2014 15.3361 11.0654 15.8584 10.9694C16.3807 10.8734 16.9299 10.8254 17.5062 10.8254C17.8664 10.8254 18.2221 10.8454 18.5733 10.8854C18.9244 10.9254 19.2667 10.9854 19.6 11.0654C19.7 11.0974 19.7917 11.1566 19.875 11.2429C19.9583 11.3293 20 11.4264 20 11.5343C20 11.7177 19.9375 11.8574 19.8125 11.9534C19.6875 12.0494 19.5333 12.0734 19.35 12.0254C19.07 11.9454 18.775 11.8854 18.465 11.8454C18.155 11.8054 17.8333 11.7854 17.5 11.7854C17.0167 11.7854 16.55 11.8294 16.1 11.9174C15.65 12.0054 15.2083 12.1374 14.775 12.3134C14.5417 12.3934 14.3542 12.3894 14.2125 12.3014C14.0708 12.2134 14 12.0574 14 11.8334ZM6.2 16.5854C7.09277 16.5854 7.96179 16.6854 8.80707 16.8854C9.65236 17.0854 10.4833 17.3854 11.3 17.7854V7.53745C10.55 7.05745 9.73651 6.68545 8.85953 6.42145C7.98256 6.15745 7.09605 6.02545 6.2 6.02545C5.56667 6.02545 4.94583 6.10145 4.3375 6.25345C3.72917 6.40545 3.11667 6.59345 2.5 6.81745V17.2334C3.01667 17.0094 3.60417 16.8454 4.2625 16.7414C4.92083 16.6374 5.56667 16.5854 6.2 16.5854ZM12.8 17.7854C13.6333 17.3854 14.45 17.0854 15.25 16.8854C16.05 16.6854 16.9 16.5854 17.8 16.5854C18.4333 16.5854 19.0875 16.6334 19.7625 16.7294C20.4375 16.8254 21.0167 16.9534 21.5 17.1134V6.81745C20.9333 6.54545 20.3348 6.34545 19.7044 6.21745C19.0741 6.08945 18.4393 6.02545 17.8 6.02545C16.9 6.02545 16.0292 6.15745 15.1875 6.42145C14.3458 6.68545 13.55 7.05745 12.8 7.53745V17.7854ZM12.05 19.6814C11.9244 19.6814 11.8055 19.6694 11.6933 19.6454C11.5811 19.6214 11.4833 19.5774 11.4 19.5134C10.6167 19.0494 9.78461 18.6894 8.90383 18.4334C8.02303 18.1774 7.12175 18.0494 6.2 18.0494C5.59105 18.0494 4.99298 18.1214 4.4058 18.2654C3.8186 18.4094 3.23333 18.5854 2.65 18.7934C2.265 18.9694 1.89375 18.9454 1.53625 18.7214C1.17875 18.4974 1 18.1774 1 17.7614V6.64945C1 6.40945 1.05833 6.18945 1.175 5.98945C1.29167 5.78945 1.46667 5.63345 1.7 5.52145C2.4 5.20145 3.12829 4.96545 3.88488 4.81345C4.64144 4.66145 5.41315 4.58545 6.2 4.58545C7.25 4.58545 8.27083 4.72145 9.2625 4.99345C10.2542 5.26545 11.1833 5.68145 12.05 6.24145C12.9 5.68145 13.8125 5.26545 14.7875 4.99345C15.7625 4.72145 16.7667 4.58545 17.8 4.58545C18.5811 4.58545 19.3473 4.66145 20.0984 4.81345C20.8495 4.96545 21.575 5.20145 22.275 5.52145C22.5083 5.63345 22.6875 5.78945 22.8125 5.98945C22.9375 6.18945 23 6.40945 23 6.64945V17.7614C23 18.2078 22.8125 18.5473 22.4375 18.7802C22.0625 19.013 21.6917 19.0174 21.325 18.7934C20.7583 18.5694 20.1814 18.3894 19.5942 18.2534C19.007 18.1174 18.409 18.0494 17.8 18.0494C16.8954 18.0494 16.0109 18.1774 15.1466 18.4334C14.2822 18.6894 13.4667 19.0494 12.7 19.5134C12.6167 19.5774 12.5189 19.6214 12.4067 19.6454C12.2945 19.6694 12.1756 19.6814 12.05 19.6814Z" fill="url(#paint0_linear_14_92)"/>
<defs>
<linearGradient id="paint0_linear_14_92" x1="12" y1="4.58545" x2="12" y2="19.6814" gradientUnits="userSpaceOnUse">
<stop stop-color="#6741D2"/>
<stop offset="1" stop-color="#9B84DD"/>
</linearGradient>
</defs>
</svg>
