<svg width="36" height="36" viewBox="0 0 36 36" fill="none" xmlns="http://www.w3.org/2000/svg">
<path d="M18 31.98C25.721 31.98 31.98 25.721 31.98 18C31.98 10.2791 25.721 4.02002 18 4.02002C10.2791 4.02002 4.02002 10.2791 4.02002 18C4.02002 25.721 10.2791 31.98 18 31.98Z" fill="url(#paint0_linear_58_2)"/>
<path d="M11.6101 20.73L17.2801 27.39C17.6701 27.84 18.3601 27.84 18.7201 27.39L24.3901 20.73C24.9001 20.13 24.4801 19.17 23.6701 19.17H19.8901V9.21C19.8901 8.7 19.4701 8.25 18.9301 8.25H17.1301C16.6201 8.25 16.1701 8.67 16.1701 9.21V19.14H12.3601C11.5501 19.17 11.1001 20.13 11.6101 20.73Z" fill="white"/>
<defs>
<linearGradient id="paint0_linear_58_2" x1="18" y1="4.02002" x2="18" y2="31.98" gradientUnits="userSpaceOnUse">
<stop stop-color="#6741D2"/>
<stop offset="1" stop-color="#9B84DD"/>
</linearGradient>
</defs>
</svg>
