<svg width="48" height="48" viewBox="0 0 48 48" fill="none" xmlns="http://www.w3.org/2000/svg">
<g clip-path="url(#clip0_39_58)">
<path d="M44.7803 12.5402C42.6341 8.86303 39.723 5.95183 36.0462 3.80592C32.3689 1.6599 28.3543 0.587158 23.9996 0.587158C19.6455 0.587158 15.6296 1.66022 11.953 3.80592C8.27587 5.95172 5.36489 8.86303 3.21876 12.5402C1.07296 16.2172 0 20.2326 0 24.5861C0 29.8157 1.52576 34.5183 4.57804 38.6951C7.63 42.8722 11.5727 45.7626 16.4057 47.3667C16.9683 47.4711 17.3848 47.3976 17.6556 47.1482C17.9265 46.8984 18.0617 46.5856 18.0617 46.2111C18.0617 46.1486 18.0564 45.5863 18.046 44.5236C18.0353 43.461 18.0302 42.5339 18.0302 41.7429L17.3115 41.8673C16.8532 41.9512 16.2751 41.9868 15.5771 41.9767C14.8794 41.967 14.1552 41.8938 13.4053 41.7579C12.6552 41.6232 11.9574 41.3107 11.3115 40.8211C10.666 40.3315 10.2077 39.6907 9.9368 38.8996L9.62432 38.1805C9.41603 37.7017 9.08812 37.1699 8.64013 36.587C8.19214 36.0035 7.73912 35.6079 7.28085 35.3996L7.06205 35.243C6.91626 35.1389 6.78098 35.0134 6.65588 34.8677C6.53088 34.722 6.4373 34.5762 6.3748 34.4302C6.3122 34.2841 6.36408 34.1642 6.53099 34.0702C6.69791 33.9762 6.99955 33.9306 7.43725 33.9306L8.062 34.0239C8.47869 34.1074 8.9941 34.3569 9.60889 34.7738C10.2233 35.1904 10.7285 35.7319 11.1244 36.3983C11.6038 37.2527 12.1813 37.9037 12.8587 38.3517C13.5356 38.7996 14.218 39.0233 14.9054 39.0233C15.5927 39.0233 16.1864 38.9712 16.6866 38.8675C17.1862 38.7633 17.655 38.6067 18.0927 38.3985C18.2802 37.0021 18.7907 35.9294 19.6237 35.1795C18.4364 35.0547 17.3689 34.8668 16.4207 34.6169C15.4731 34.3667 14.4938 33.9607 13.4836 33.3976C12.4728 32.8354 11.6343 32.1372 10.9678 31.3043C10.3013 30.4709 9.75424 29.3768 9.32749 28.023C8.90051 26.6687 8.68697 25.1063 8.68697 23.3356C8.68697 20.8144 9.51005 18.6689 11.1559 16.898C10.3849 15.0025 10.4577 12.8776 11.3745 10.5235C11.9786 10.3358 12.8746 10.4767 14.0619 10.9452C15.2495 11.414 16.119 11.8156 16.6713 12.1486C17.2236 12.4814 17.6661 12.7635 17.9995 12.9922C19.9373 12.4508 21.9371 12.18 23.9994 12.18C26.0617 12.18 28.0619 12.4508 29.9999 12.9922L31.1873 12.2426C31.9993 11.7424 32.9582 11.284 34.0617 10.8673C35.1659 10.4508 36.0102 10.3361 36.5938 10.5239C37.5309 12.8781 37.6144 15.0028 36.8432 16.8983C38.489 18.6693 39.3124 20.8153 39.3124 23.336C39.3124 25.1067 39.0981 26.6739 38.6717 28.0387C38.2449 29.4036 37.6931 30.4966 37.0163 31.3199C36.3387 32.1431 35.4948 32.8358 34.4846 33.398C33.4741 33.9606 32.4945 34.3666 31.5469 34.6168C30.5988 34.867 29.5313 35.0551 28.344 35.1801C29.4269 36.1172 29.9685 37.5964 29.9685 39.6171V46.2102C29.9685 46.5847 30.0987 46.8974 30.3594 47.1473C30.6198 47.3968 31.031 47.4702 31.5936 47.3657C36.4273 45.7619 40.37 42.8714 43.4218 38.6942C46.4734 34.5175 47.9997 29.8148 47.9997 24.5852C47.9986 20.2322 46.9251 16.2172 44.7803 12.5402Z" fill="url(#paint0_linear_39_58)"/>
</g>
<defs>
<linearGradient id="paint0_linear_39_58" x1="23.9998" y1="0.587158" x2="23.9998" y2="47.4127" gradientUnits="userSpaceOnUse">
<stop stop-color="#6741D2"/>
<stop offset="1" stop-color="#9B84DD"/>
</linearGradient>
<clipPath id="clip0_39_58">
<rect width="48" height="48" fill="white"/>
</clipPath>
</defs>
</svg>
