<svg width="28" height="28" viewBox="0 0 28 28" fill="none" xmlns="http://www.w3.org/2000/svg">
<g clip-path="url(#clip0_39_58)">
<path d="M26.1218 7.31512C24.8699 5.17012 23.1718 3.47192 21.027 2.22014C18.8818 0.968293 16.54 0.342529 13.9998 0.342529C11.4599 0.342529 9.11727 0.968484 6.97259 2.22014C4.82759 3.47186 3.12952 5.17012 1.87761 7.31512C0.625891 9.46006 0 11.8023 0 14.3419C0 17.3925 0.890026 20.1357 2.67052 22.5722C4.45083 25.0088 6.75073 26.6949 9.57001 27.6306C9.89819 27.6915 10.1411 27.6486 10.2991 27.5031C10.4571 27.3574 10.536 27.175 10.536 26.9565C10.536 26.92 10.5329 26.592 10.5268 25.9721C10.5206 25.3523 10.5176 24.8115 10.5176 24.3501L10.0983 24.4226C9.83102 24.4716 9.49378 24.4923 9.08663 24.4864C8.67967 24.4807 8.25719 24.4381 7.81978 24.3588C7.38217 24.2802 6.97515 24.0979 6.59839 23.8123C6.22182 23.5267 5.95449 23.1529 5.79647 22.6914L5.61419 22.272C5.49269 21.9927 5.3014 21.6825 5.04008 21.3424C4.77875 21.002 4.51449 20.7713 4.24716 20.6498L4.11953 20.5584C4.03449 20.4977 3.95557 20.4245 3.88259 20.3395C3.80968 20.2545 3.75509 20.1695 3.71864 20.0843C3.68212 19.9991 3.71238 19.9292 3.80974 19.8743C3.90711 19.8195 4.08307 19.7929 4.3384 19.7929L4.70284 19.8473C4.9459 19.896 5.24656 20.0415 5.60518 20.2847C5.96362 20.5277 6.25827 20.8436 6.48921 21.2323C6.76886 21.7307 7.10578 22.1105 7.50093 22.3718C7.89576 22.6331 8.29384 22.7636 8.6948 22.7636C9.09576 22.7636 9.44206 22.7332 9.73384 22.6727C10.0253 22.6119 10.2988 22.5206 10.5541 22.3991C10.6635 21.5846 10.9612 20.9588 11.4472 20.5214C10.7546 20.4486 10.1319 20.339 9.57876 20.1932C9.02597 20.0473 8.45474 19.8104 7.86543 19.482C7.2758 19.154 6.78667 18.7467 6.39791 18.2608C6.00908 17.7747 5.68997 17.1365 5.44103 16.3468C5.19197 15.5567 5.0674 14.6454 5.0674 13.6125C5.0674 12.1418 5.54753 10.8902 6.5076 9.85719C6.05786 8.75149 6.10032 7.51196 6.6351 6.13874C6.98753 6.02925 7.51018 6.11142 8.2028 6.38475C8.89553 6.6582 9.40273 6.89246 9.72491 7.08668C10.0471 7.28084 10.3052 7.44537 10.4997 7.57881C11.6301 7.26296 12.7966 7.105 13.9996 7.105C15.2027 7.105 16.3695 7.26296 17.4999 7.57881L18.1926 7.14152C18.6663 6.84974 19.2256 6.58235 19.8693 6.33929C20.5134 6.09635 21.006 6.02944 21.3464 6.13893C21.893 7.51222 21.9418 8.75168 21.4919 9.85738C22.4519 10.8904 22.9322 12.1423 22.9322 13.6127C22.9322 14.6456 22.8072 15.5598 22.5585 16.3559C22.3095 17.1521 21.9877 17.7897 21.5928 18.27C21.1976 18.7502 20.7053 19.1543 20.116 19.4822C19.5266 19.8103 18.9551 20.0472 18.4023 20.1932C17.8493 20.3391 17.2266 20.4488 16.534 20.5217C17.1657 21.0684 17.4816 21.9313 17.4816 23.11V26.956C17.4816 27.1744 17.5576 27.3569 17.7097 27.5026C17.8616 27.6481 18.1014 27.691 18.4296 27.63C21.2493 26.6944 23.5492 25.0083 25.3294 22.5717C27.1095 20.1352 27.9998 17.392 27.9998 14.3414C27.9992 11.8022 27.373 9.46006 26.1218 7.31512Z" fill="#B8B8B8"/>
</g>
<defs>
<clipPath id="clip0_39_58">
<rect width="28" height="28" fill="white"/>
</clipPath>
</defs>
</svg>
