<svg width="28" height="28" viewBox="0 0 28 28" fill="none" xmlns="http://www.w3.org/2000/svg">
<path d="M13.9982 0C6.26841 0 0 6.42672 0 14.3549C0 20.6959 4.01113 26.0752 9.57603 27.9749C10.276 28.1076 10.5316 27.6644 10.5316 27.2837C10.5316 26.9423 10.5195 26.0396 10.5122 24.8421C6.61853 25.709 5.7962 22.9173 5.7962 22.9173C5.16087 21.2586 4.24196 20.8174 4.24196 20.8174C2.96965 19.9274 4.3366 19.9454 4.3366 19.9454C5.74175 20.0471 6.48023 21.425 6.48023 21.425C7.72971 23.6179 9.75816 22.9851 10.5561 22.6171C10.682 21.6895 11.0441 21.057 11.4452 20.6978C8.337 20.3349 5.06787 19.1033 5.06787 13.6043C5.06787 12.0368 5.61413 10.7556 6.50986 9.75103C6.36464 9.38822 5.88521 7.92791 6.64651 5.953C6.64651 5.953 7.82265 5.56724 10.4963 7.42395C11.613 7.10572 12.81 6.94694 14.0017 6.94156C15.1899 6.94891 16.3884 7.10572 17.5068 7.42592C20.1793 5.56892 21.3535 5.95497 21.3535 5.95497C22.1164 7.93167 21.637 9.39013 21.4935 9.7527C22.3911 10.7573 22.932 12.0385 22.932 13.6062C22.932 19.1196 19.6595 20.333 16.5411 20.6885C17.0433 21.1321 17.4912 22.0074 17.4912 23.3462C17.4912 25.2659 17.4737 26.8134 17.4737 27.2837C17.4737 27.6678 17.7256 28.1145 18.4361 27.9733C23.9924 26.0715 28 20.6942 28 14.3549C28.0001 6.42666 21.7316 0 13.9982 0Z" fill="#6879D9"/>
</svg>
