<svg width="36" height="36" viewBox="0 0 36 36" fill="none" xmlns="http://www.w3.org/2000/svg">
<g clip-path="url(#clip0_14_100)">
<path fill-rule="evenodd" clip-rule="evenodd" d="M18 0C8.0589 0 0 8.0589 0 18C0 27.9411 8.0589 36 18 36C27.9411 36 36 27.9411 36 18C36 8.0589 27.9411 0 18 0ZM17.9729 19.5145L11.249 14.6336V24.9225H10.1257C9.4998 24.9225 9.00233 24.425 9.00233 23.7992V12.4215C9.00233 12.3739 9.00525 12.3292 9.0108 12.2873C9.0312 12.1088 9.0963 11.9342 9.21097 11.7796C9.58005 11.2821 10.3022 11.1698 10.8157 11.5388L17.989 16.7543L25.2104 11.4747C25.7078 11.1055 26.414 11.2179 26.783 11.7314C26.9792 11.9959 27.0394 12.3192 26.9755 12.6196V23.8152C26.9755 24.425 26.4781 24.9225 25.8523 24.9225H24.7289V14.6091L17.9729 19.5145Z" fill="#FAFAFA"/>
</g>
<defs>
<clipPath id="clip0_14_100">
<rect width="36" height="36" fill="white"/>
</clipPath>
</defs>
</svg>
