<svg width="28" height="28" viewBox="0 0 28 28" fill="none" xmlns="http://www.w3.org/2000/svg">
<g clip-path="url(#clip0_43_72)">
<mask id="mask0_43_72" style="mask-type:luminance" maskUnits="userSpaceOnUse" x="0" y="0" width="28" height="28">
<path d="M28 0H0V28H28V0Z" fill="white"/>
</mask>
<g mask="url(#mask0_43_72)">
<path fill-rule="evenodd" clip-rule="evenodd" d="M14 0C6.26803 0 0 6.26803 0 14C0 21.732 6.26803 28 14 28C21.732 28 28 21.732 28 14C28 6.26803 21.732 0 14 0ZM13.9789 15.1779L8.74924 11.3817V19.3842H7.87552C7.38873 19.3842 7.00181 18.9972 7.00181 18.5104V9.66117C7.00181 9.62412 7.00408 9.58936 7.0084 9.55681C7.02427 9.41797 7.0749 9.28212 7.16409 9.16189C7.45115 8.77497 8.01284 8.68758 8.41225 8.97464L13.9914 13.0311L19.608 8.92477C19.995 8.63765 20.5442 8.72503 20.8312 9.12444C20.9838 9.33012 21.0306 9.5816 20.981 9.81522V18.5229C20.981 18.9972 20.5941 19.3842 20.1073 19.3842H19.2336V11.3626L13.9789 15.1779Z" fill="black"/>
</g>
</g>
<defs>
<clipPath id="clip0_43_72">
<rect width="28" height="28" fill="white"/>
</clipPath>
</defs>
</svg>
