<svg width="28" height="28" viewBox="0 0 28 28" fill="none" xmlns="http://www.w3.org/2000/svg">
<path d="M14.5076 16.7184L3.40384 9.65216C2.82979 9.27253 2.4278 8.68264 2.28442 8.00952C2.14103 7.3364 2.26774 6.6339 2.63724 6.05328C3.00675 5.47267 3.5895 5.06039 4.26 4.90523C4.9305 4.75006 5.63512 4.86443 6.22213 5.2237L14.3684 10.4075L21.6826 5.2874C22.2532 4.9007 22.9531 4.75399 23.631 4.87895C24.3089 5.00392 24.9105 5.39053 25.3057 5.95529C25.701 6.52004 25.8583 7.21762 25.7435 7.89734C25.6288 8.57706 25.2513 9.18437 24.6926 9.58811L14.5076 16.7184Z" fill="#EA4435"/>
<path d="M24.0625 23.1882H20.5625V7.43823C20.5625 6.74204 20.8391 6.07436 21.3313 5.58208C21.8236 5.08979 22.4913 4.81323 23.1875 4.81323C23.8837 4.81323 24.5514 5.08979 25.0437 5.58208C25.5359 6.07436 25.8125 6.74204 25.8125 7.43823L25.8125 21.4382C25.8125 21.9024 25.6281 22.3475 25.2999 22.6757C24.9717 23.0039 24.5266 23.1882 24.0625 23.1882Z" fill="#00AC47"/>
<path d="M25.7743 7.05739C25.7666 7.00489 25.7672 6.95125 25.7563 6.89884C25.7395 6.81852 25.7082 6.74432 25.6843 6.66679C25.661 6.57806 25.633 6.49064 25.6004 6.4049C25.5829 6.36334 25.556 6.32685 25.5361 6.28643C25.4817 6.16979 25.4187 6.05734 25.3476 5.94999C25.3126 5.89915 25.2689 5.85584 25.2302 5.80772C25.1638 5.72025 25.0921 5.63699 25.0154 5.55843C24.9572 5.50182 24.8909 5.45448 24.8276 5.40347C24.7604 5.34582 24.6903 5.29159 24.6176 5.24098C24.5482 5.19565 24.4723 5.16074 24.3989 5.12207C24.3215 5.08173 24.2458 5.0378 24.1653 5.0056C24.0875 4.97428 24.0045 4.95433 23.9232 4.93044C23.8419 4.90655 23.7611 4.87794 23.6776 4.86245C23.5742 4.84584 23.4699 4.83532 23.3652 4.83095C23.2988 4.82632 23.233 4.81468 23.1664 4.8152C23.0426 4.81881 22.9192 4.83124 22.7972 4.85239C22.7479 4.85974 22.6983 4.85913 22.6494 4.86928C22.4843 4.91973 22.3196 4.97164 22.1555 5.02503C22.1104 5.04428 22.0709 5.07289 22.0273 5.09459C21.5829 5.30193 21.2082 5.63352 20.9482 6.0493C20.6883 6.46507 20.5544 6.94723 20.5626 7.43749V12.4792L24.6926 9.58798C25.0982 9.31579 25.4162 8.93189 25.6081 8.48274C25.8 8.03359 25.8579 7.53862 25.7743 7.05739Z" fill="#FFBA00"/>
<path d="M4.8125 4.8125C5.50869 4.8125 6.17637 5.08906 6.66866 5.58134C7.16094 6.07363 7.4375 6.74131 7.4375 7.4375V23.1875H3.9375C3.47337 23.1875 3.02825 23.0031 2.70006 22.6749C2.37187 22.3467 2.1875 21.9016 2.1875 21.4375V7.4375C2.1875 6.74131 2.46406 6.07363 2.95634 5.58134C3.44863 5.08906 4.11631 4.8125 4.8125 4.8125Z" fill="#4285F4"/>
<path d="M2.22591 7.05751C2.23361 7.00501 2.233 6.95138 2.24393 6.89896C2.26073 6.81864 2.29197 6.74444 2.31595 6.66691C2.33919 6.57821 2.36717 6.49082 2.39977 6.40511C2.41727 6.36355 2.44422 6.32706 2.46417 6.28664C2.51858 6.16995 2.58158 6.05747 2.65265 5.95011C2.68765 5.89928 2.7314 5.85596 2.77007 5.80784C2.83641 5.72037 2.90812 5.63712 2.9848 5.55855C3.04298 5.50194 3.10931 5.4546 3.17266 5.40359C3.23987 5.34592 3.30996 5.29169 3.38266 5.2411C3.45205 5.19578 3.528 5.16086 3.60141 5.12219C3.67727 5.07928 3.75525 5.0402 3.83503 5.00511C3.91291 4.97379 3.99586 4.95384 4.07706 4.92995C4.15826 4.90606 4.2392 4.87745 4.32267 4.86196C4.42609 4.84536 4.53039 4.83484 4.63505 4.83046C4.70155 4.82583 4.76726 4.81419 4.83393 4.81471C4.95772 4.81832 5.08108 4.83074 5.2031 4.8519C5.25236 4.85925 5.30197 4.85864 5.35097 4.86879C5.43567 4.89037 5.5192 4.91631 5.60122 4.94649C5.6837 4.96841 5.76504 4.99446 5.84491 5.02454C5.88988 5.04379 5.92935 5.0724 5.9731 5.0941C6.08652 5.14739 6.19595 5.2088 6.30052 5.27785C6.65108 5.51856 6.93778 5.84097 7.13587 6.21725C7.33395 6.59353 7.43748 7.01238 7.4375 7.43761V12.4794L3.3075 9.58828C2.902 9.31601 2.58406 8.93211 2.39212 8.48298C2.20017 8.03386 2.14244 7.53875 2.22591 7.05751Z" fill="#C52528"/>
</svg>
