<svg width="28" height="28" viewBox="0 0 28 28" fill="none" xmlns="http://www.w3.org/2000/svg">
<g clip-path="url(#clip0_14_114)">
<path fill-rule="evenodd" clip-rule="evenodd" d="M0 14C0 6.26803 6.26803 0 14 0C21.732 0 28 6.26803 28 14C28 21.732 21.732 28 14 28C6.26803 28 0 21.732 0 14ZM9.89363 11.5954H6.72093V21.1281H9.89363V11.5954ZM10.1026 8.64657C10.082 7.7119 9.41366 7 8.32825 7C7.2429 7 6.53333 7.7119 6.53333 8.64657C6.53333 9.56188 7.22196 10.2943 8.28707 10.2943H8.30737C9.41366 10.2943 10.1026 9.56188 10.1026 8.64657ZM21.3357 15.6623C21.3357 12.7343 19.7704 11.3716 17.6826 11.3716C15.9981 11.3716 15.244 12.2968 14.8229 12.9459V11.5957H11.6498C11.6916 12.4902 11.6498 21.1283 11.6498 21.1283H14.8229V15.8045C14.8229 15.5196 14.8435 15.2354 14.9274 15.0314C15.1567 14.4622 15.6788 13.8729 16.5553 13.8729C17.7038 13.8729 18.163 14.7471 18.163 16.0281V21.1281H21.3355L21.3357 15.6623Z" fill="#B8B8B8"/>
</g>
<defs>
<clipPath id="clip0_14_114">
<rect width="28" height="28" fill="white"/>
</clipPath>
</defs>
</svg>
