<svg width="36" height="36" viewBox="0 0 36 36" fill="none" xmlns="http://www.w3.org/2000/svg">
<g clip-path="url(#clip0_14_112)">
<path fill-rule="evenodd" clip-rule="evenodd" d="M0 18C0 8.0589 8.0589 0 18 0C27.9411 0 36 8.0589 36 18C36 27.9411 27.9411 36 18 36C8.0589 36 0 27.9411 0 18ZM12.7204 14.9083H8.6412V27.1647H12.7204V14.9083ZM12.9891 11.117C12.9626 9.9153 12.1033 9 10.7078 9C9.3123 9 8.4 9.9153 8.4 11.117C8.4 12.2938 9.28537 13.2355 10.6548 13.2355H10.6809C12.1033 13.2355 12.9891 12.2938 12.9891 11.117ZM27.4316 20.1373C27.4316 16.3727 25.4192 14.6206 22.7348 14.6206C20.5691 14.6206 19.5994 15.8101 19.058 16.6447V14.9087H14.9783C15.0321 16.0588 14.9783 27.165 14.9783 27.165H19.058V20.32C19.058 19.9537 19.0845 19.5884 19.1923 19.3261C19.4872 18.5943 20.1584 17.8366 21.2854 17.8366C22.7621 17.8366 23.3524 18.9605 23.3524 20.6075V27.1647H27.4314L27.4316 20.1373Z" fill="#FAFAFA"/>
</g>
<defs>
<clipPath id="clip0_14_112">
<rect width="36" height="36" fill="white"/>
</clipPath>
</defs>
</svg>
