<svg width="28" height="28" viewBox="0 0 28 28" fill="none" xmlns="http://www.w3.org/2000/svg">
<g clip-path="url(#clip0_44_2)">
<path d="M14 27.9998C21.732 27.9998 28 21.7317 28 13.9998C28 6.26777 21.732 -0.000244141 14 -0.000244141C6.26801 -0.000244141 0 6.26777 0 13.9998C0 21.7317 6.26801 27.9998 14 27.9998Z" fill="#007AB9"/>
<path d="M22.3648 15.1263V20.8982H19.0184V15.5131C19.0184 14.161 18.5353 13.2376 17.3236 13.2376C16.399 13.2376 15.8497 13.8593 15.6071 14.4612C15.519 14.6763 15.4963 14.9751 15.4963 15.2768V20.898H12.1497C12.1497 20.898 12.1946 11.7774 12.1497 10.8333H15.4966V12.2596C15.4898 12.2708 15.4804 12.2818 15.4744 12.2925H15.4966V12.2596C15.9413 11.5753 16.7344 10.597 18.5126 10.597C20.7142 10.597 22.3648 12.0355 22.3648 15.1263ZM8.64881 5.98181C7.50407 5.98181 6.75513 6.73325 6.75513 7.72052C6.75513 8.68683 7.48235 9.45997 8.60489 9.45997H8.6266C9.79381 9.45997 10.5195 8.68683 10.5195 7.72052C10.4973 6.73325 9.79381 5.98181 8.64881 5.98181ZM6.95403 20.8982H10.2994V10.8333H6.95403V20.8982Z" fill="#F1F2F2"/>
</g>
<defs>
<clipPath id="clip0_44_2">
<rect width="28" height="28" fill="white"/>
</clipPath>
</defs>
</svg>
