<svg width="324" height="51" viewBox="0 0 324 51" fill="none" xmlns="http://www.w3.org/2000/svg">
<path d="M25.8721 6.73602L25.1041 12.784H16.8961V40H9.02413V12.784H0.432129V6.73602H25.8721Z" fill="#141414"/>
<path d="M41.906 13.696C44.114 13.696 45.842 14.368 47.09 15.712C48.338 17.056 48.962 18.944 48.962 21.376V40H41.378V22.672C41.378 21.392 41.17 20.512 40.754 20.032C40.338 19.52 39.746 19.264 38.978 19.264C37.442 19.264 35.97 20.352 34.562 22.528V40H26.978V4.38402L34.562 3.61602V17.248C35.618 16.064 36.738 15.184 37.922 14.608C39.106 14 40.434 13.696 41.906 13.696Z" fill="#141414"/>
<path d="M60.3451 14.512V40H52.7611V14.512H60.3451ZM56.5051 1.07202C57.8171 1.07202 58.8891 1.48802 59.7211 2.32002C60.5851 3.12002 61.0171 4.14402 61.0171 5.39202C61.0171 6.64002 60.5851 7.68002 59.7211 8.51202C58.8891 9.31202 57.8171 9.71202 56.5051 9.71202C55.1931 9.71202 54.1211 9.31202 53.2891 8.51202C52.4571 7.68002 52.0411 6.64002 52.0411 5.39202C52.0411 4.14402 52.4571 3.12002 53.2891 2.32002C54.1211 1.48802 55.1931 1.07202 56.5051 1.07202Z" fill="#141414"/>
<path d="M84.644 32.608C84.644 33.568 84.772 34.272 85.028 34.72C85.316 35.168 85.764 35.504 86.372 35.728L84.788 40.672C83.22 40.544 81.94 40.208 80.948 39.664C79.956 39.088 79.188 38.192 78.644 36.976C76.98 39.536 74.42 40.816 70.964 40.816C68.436 40.816 66.42 40.08 64.916 38.608C63.412 37.136 62.66 35.216 62.66 32.848C62.66 30.064 63.684 27.936 65.732 26.464C67.78 24.992 70.74 24.256 74.612 24.256H77.204V23.152C77.204 21.648 76.884 20.624 76.244 20.08C75.604 19.504 74.484 19.216 72.884 19.216C72.052 19.216 71.044 19.344 69.86 19.6C68.676 19.824 67.46 20.144 66.212 20.56L64.484 15.568C66.084 14.96 67.716 14.496 69.38 14.176C71.076 13.856 72.644 13.696 74.084 13.696C77.732 13.696 80.404 14.448 82.1 15.952C83.796 17.456 84.644 19.712 84.644 22.72V32.608ZM73.172 35.392C74.9 35.392 76.244 34.576 77.204 32.944V28.432H75.332C73.604 28.432 72.308 28.736 71.444 29.344C70.612 29.952 70.196 30.896 70.196 32.176C70.196 33.2 70.452 34 70.964 34.576C71.508 35.12 72.244 35.392 73.172 35.392Z" fill="#141414"/>
<path d="M111.768 16C110.104 16.672 107.656 17.008 104.424 17.008C106.088 17.712 107.304 18.576 108.072 19.6C108.84 20.624 109.224 21.952 109.224 23.584C109.224 25.216 108.792 26.688 107.928 28C107.064 29.28 105.816 30.288 104.184 31.024C102.584 31.76 100.696 32.128 98.5201 32.128C97.4961 32.128 96.5201 32.032 95.5921 31.84C95.3361 31.968 95.1281 32.176 94.9681 32.464C94.8401 32.72 94.7761 32.992 94.7761 33.28C94.7761 33.76 94.9521 34.144 95.3041 34.432C95.6881 34.688 96.4401 34.816 97.5601 34.816H101.4C103.352 34.816 105.064 35.136 106.536 35.776C108.008 36.416 109.144 37.296 109.944 38.416C110.744 39.536 111.144 40.8 111.144 42.208C111.144 44.864 109.992 46.928 107.688 48.4C105.416 49.904 102.12 50.656 97.8001 50.656C94.6961 50.656 92.2481 50.32 90.4561 49.648C88.6641 49.008 87.4001 48.096 86.6641 46.912C85.9601 45.728 85.6081 44.24 85.6081 42.448H92.4241C92.4241 43.216 92.5681 43.824 92.8561 44.272C93.1761 44.72 93.7361 45.056 94.5361 45.28C95.3361 45.504 96.4881 45.616 97.9921 45.616C100.072 45.616 101.512 45.36 102.312 44.848C103.112 44.368 103.512 43.664 103.512 42.736C103.512 41.968 103.208 41.36 102.6 40.912C101.992 40.464 101.08 40.24 99.8641 40.24H96.1681C93.5441 40.24 91.5761 39.776 90.2641 38.848C88.9841 37.888 88.3441 36.672 88.3441 35.2C88.3441 34.272 88.6161 33.376 89.1601 32.512C89.7041 31.616 90.4401 30.88 91.3681 30.304C89.7681 29.44 88.6001 28.432 87.8641 27.28C87.1601 26.096 86.8081 24.672 86.8081 23.008C86.8081 20.16 87.8321 17.904 89.8801 16.24C91.9281 14.544 94.6321 13.696 97.9921 13.696C100.552 13.76 102.712 13.504 104.472 12.928C106.264 12.352 108.104 11.504 109.992 10.384L111.768 16ZM98.1841 18.688C97.0001 18.688 96.0561 19.072 95.3521 19.84C94.6801 20.576 94.3441 21.6 94.3441 22.912C94.3441 24.288 94.6801 25.36 95.3521 26.128C96.0561 26.864 97.0001 27.232 98.1841 27.232C99.4321 27.232 100.376 26.864 101.016 26.128C101.688 25.392 102.024 24.288 102.024 22.816C102.024 20.064 100.744 18.688 98.1841 18.688Z" fill="#141414"/>
<path d="M122.776 13.696C126.68 13.696 129.736 14.896 131.944 17.296C134.152 19.664 135.256 22.992 135.256 27.28C135.256 30 134.744 32.384 133.72 34.432C132.728 36.448 131.288 38.016 129.4 39.136C127.544 40.256 125.336 40.816 122.776 40.816C118.904 40.816 115.848 39.632 113.608 37.264C111.4 34.864 110.296 31.52 110.296 27.232C110.296 24.512 110.792 22.144 111.784 20.128C112.808 18.08 114.248 16.496 116.104 15.376C117.992 14.256 120.216 13.696 122.776 13.696ZM122.776 19.264C121.24 19.264 120.088 19.92 119.32 21.232C118.552 22.512 118.168 24.512 118.168 27.232C118.168 30.016 118.536 32.048 119.272 33.328C120.04 34.608 121.208 35.248 122.776 35.248C124.312 35.248 125.464 34.608 126.232 33.328C127 32.016 127.384 30 127.384 27.28C127.384 24.496 127 22.464 126.232 21.184C125.496 19.904 124.344 19.264 122.776 19.264Z" fill="#141414"/>
<path d="M165.173 22.384C167.381 22.8 169.173 23.616 170.549 24.832C171.957 26.048 172.661 27.872 172.661 30.304C172.661 33.856 171.381 36.368 168.821 37.84C166.293 39.28 162.741 40 158.165 40H147.461V6.73602H156.869C161.541 6.73602 165.109 7.40802 167.573 8.75202C170.037 10.064 171.269 12.224 171.269 15.232C171.269 17.184 170.677 18.768 169.493 19.984C168.341 21.168 166.901 21.968 165.173 22.384ZM155.333 12.304V20.032H158.261C161.589 20.032 163.253 18.688 163.253 16C163.253 14.656 162.805 13.712 161.909 13.168C161.013 12.592 159.589 12.304 157.637 12.304H155.333ZM158.213 34.288C160.293 34.288 161.861 33.984 162.917 33.376C164.005 32.736 164.549 31.568 164.549 29.872C164.549 26.8 162.629 25.264 158.789 25.264H155.333V34.288H158.213Z" fill="#141414"/>
<path d="M195.278 32.608C195.278 33.568 195.406 34.272 195.662 34.72C195.95 35.168 196.398 35.504 197.006 35.728L195.422 40.672C193.854 40.544 192.574 40.208 191.582 39.664C190.59 39.088 189.822 38.192 189.278 36.976C187.614 39.536 185.054 40.816 181.598 40.816C179.07 40.816 177.054 40.08 175.55 38.608C174.046 37.136 173.294 35.216 173.294 32.848C173.294 30.064 174.318 27.936 176.366 26.464C178.414 24.992 181.374 24.256 185.246 24.256H187.838V23.152C187.838 21.648 187.518 20.624 186.878 20.08C186.238 19.504 185.118 19.216 183.518 19.216C182.686 19.216 181.678 19.344 180.494 19.6C179.31 19.824 178.094 20.144 176.846 20.56L175.118 15.568C176.718 14.96 178.35 14.496 180.014 14.176C181.71 13.856 183.278 13.696 184.718 13.696C188.366 13.696 191.038 14.448 192.734 15.952C194.43 17.456 195.278 19.712 195.278 22.72V32.608ZM183.806 35.392C185.534 35.392 186.878 34.576 187.838 32.944V28.432H185.966C184.238 28.432 182.942 28.736 182.078 29.344C181.246 29.952 180.83 30.896 180.83 32.176C180.83 33.2 181.086 34 181.598 34.576C182.142 35.12 182.878 35.392 183.806 35.392Z" fill="#141414"/>
<path d="M213.223 13.792C214.151 13.792 214.999 13.904 215.767 14.128L214.567 21.472C213.607 21.248 212.839 21.136 212.263 21.136C210.759 21.136 209.607 21.664 208.807 22.72C208.039 23.744 207.431 25.296 206.983 27.376V40H199.399V14.512H206.023L206.647 19.456C207.223 17.696 208.087 16.32 209.239 15.328C210.423 14.304 211.751 13.792 213.223 13.792Z" fill="#141414"/>
<path d="M231.193 13.696C234.233 13.696 236.569 14.896 238.201 17.296C239.833 19.664 240.649 22.992 240.649 27.28C240.649 29.904 240.233 32.24 239.401 34.288C238.601 36.336 237.433 37.936 235.897 39.088C234.393 40.24 232.601 40.816 230.521 40.816C229.145 40.816 227.881 40.528 226.729 39.952C225.609 39.376 224.649 38.576 223.849 37.552L223.465 40H216.745V4.38402L224.329 3.56802V17.104C225.097 16.048 226.073 15.216 227.257 14.608C228.473 14 229.785 13.696 231.193 13.696ZM228.313 35.296C231.289 35.296 232.777 32.624 232.777 27.28C232.777 24.24 232.425 22.144 231.721 20.992C231.017 19.84 229.993 19.264 228.649 19.264C226.953 19.264 225.513 20.256 224.329 22.24V32.848C224.809 33.616 225.385 34.224 226.057 34.672C226.761 35.088 227.513 35.296 228.313 35.296Z" fill="#141414"/>
<path d="M254.506 13.696C258.41 13.696 261.466 14.896 263.674 17.296C265.882 19.664 266.986 22.992 266.986 27.28C266.986 30 266.474 32.384 265.45 34.432C264.458 36.448 263.018 38.016 261.13 39.136C259.274 40.256 257.066 40.816 254.506 40.816C250.634 40.816 247.578 39.632 245.338 37.264C243.13 34.864 242.026 31.52 242.026 27.232C242.026 24.512 242.522 22.144 243.514 20.128C244.538 18.08 245.978 16.496 247.834 15.376C249.722 14.256 251.946 13.696 254.506 13.696ZM254.506 19.264C252.97 19.264 251.818 19.92 251.05 21.232C250.282 22.512 249.898 24.512 249.898 27.232C249.898 30.016 250.266 32.048 251.002 33.328C251.77 34.608 252.938 35.248 254.506 35.248C256.042 35.248 257.194 34.608 257.962 33.328C258.73 32.016 259.113 30 259.113 27.28C259.113 24.496 258.73 22.464 257.962 21.184C257.226 19.904 256.074 19.264 254.506 19.264Z" fill="#141414"/>
<path d="M278.553 13.696C280.377 13.696 282.089 13.968 283.689 14.512C285.289 15.056 286.697 15.824 287.913 16.816L285.129 21.088C283.049 19.776 280.953 19.12 278.841 19.12C277.849 19.12 277.081 19.296 276.537 19.648C276.025 19.968 275.769 20.432 275.769 21.04C275.769 21.52 275.881 21.92 276.105 22.24C276.361 22.528 276.857 22.832 277.593 23.152C278.329 23.472 279.465 23.856 281.001 24.304C283.657 25.072 285.625 26.08 286.905 27.328C288.217 28.544 288.873 30.24 288.873 32.416C288.873 34.144 288.377 35.648 287.385 36.928C286.393 38.176 285.033 39.136 283.305 39.808C281.577 40.48 279.657 40.816 277.545 40.816C275.401 40.816 273.401 40.48 271.545 39.808C269.721 39.136 268.169 38.208 266.889 37.024L270.585 32.896C272.729 34.56 274.985 35.392 277.353 35.392C278.505 35.392 279.401 35.184 280.041 34.768C280.713 34.352 281.049 33.76 281.049 32.992C281.049 32.384 280.921 31.904 280.665 31.552C280.409 31.2 279.913 30.88 279.177 30.592C278.441 30.272 277.273 29.888 275.673 29.44C273.145 28.704 271.257 27.68 270.009 26.368C268.761 25.056 268.137 23.424 268.137 21.472C268.137 20 268.553 18.688 269.385 17.536C270.249 16.352 271.465 15.424 273.033 14.752C274.633 14.048 276.473 13.696 278.553 13.696Z" fill="#141414"/>
<path d="M310.647 32.608C310.647 33.568 310.775 34.272 311.031 34.72C311.319 35.168 311.767 35.504 312.375 35.728L310.791 40.672C309.223 40.544 307.943 40.208 306.951 39.664C305.959 39.088 305.191 38.192 304.647 36.976C302.983 39.536 300.423 40.816 296.967 40.816C294.439 40.816 292.423 40.08 290.919 38.608C289.415 37.136 288.663 35.216 288.663 32.848C288.663 30.064 289.687 27.936 291.735 26.464C293.783 24.992 296.743 24.256 300.615 24.256H303.207V23.152C303.207 21.648 302.887 20.624 302.247 20.08C301.607 19.504 300.487 19.216 298.887 19.216C298.055 19.216 297.047 19.344 295.863 19.6C294.679 19.824 293.463 20.144 292.215 20.56L290.487 15.568C292.087 14.96 293.719 14.496 295.383 14.176C297.079 13.856 298.647 13.696 300.087 13.696C303.735 13.696 306.407 14.448 308.103 15.952C309.799 17.456 310.647 19.712 310.647 22.72V32.608ZM299.175 35.392C300.903 35.392 302.247 34.576 303.207 32.944V28.432H301.335C299.607 28.432 298.311 28.736 297.447 29.344C296.615 29.952 296.199 30.896 296.199 32.176C296.199 33.2 296.455 34 296.967 34.576C297.511 35.12 298.247 35.392 299.175 35.392Z" fill="#141414"/>
<path d="M317.552 32.128C318.736 32.128 319.744 32.56 320.576 33.424C321.44 34.256 321.872 35.264 321.872 36.448C321.872 37.664 321.44 38.704 320.576 39.568C319.744 40.4 318.736 40.816 317.552 40.816C316.336 40.816 315.296 40.4 314.432 39.568C313.6 38.704 313.184 37.664 313.184 36.448C313.184 35.264 313.6 34.256 314.432 33.424C315.296 32.56 316.336 32.128 317.552 32.128Z" fill="#6741D2"/>
<path d="M62 5.5C62 8.53757 59.5376 11 56.5 11C53.4624 11 51 8.53757 51 5.5C51 2.46243 53.4624 0 56.5 0C59.5376 0 62 2.46243 62 5.5Z" fill="#6741D2"/>
<path d="M324 36.5C324 39.5376 321.538 42 318.5 42C315.462 42 313 39.5376 313 36.5C313 33.4624 315.462 31 318.5 31C321.538 31 324 33.4624 324 36.5Z" fill="#6741D2"/>
</svg>
