<svg width="204" height="28" viewBox="0 0 204 28" fill="none" xmlns="http://www.w3.org/2000/svg">
<path d="M115.188 1.75H89.8125V26.25H115.188V1.75Z" fill="#B8B8B8"/>
<path d="M106.858 20.8906C107.074 21.3146 107.41 21.671 107.827 21.9187C108.244 22.1664 108.725 22.2953 109.214 22.2906C110.202 22.2906 110.834 21.8137 110.834 21.1531C110.834 20.3656 110.185 20.0839 109.098 19.6245L108.501 19.3777C106.779 18.6699 105.637 17.7835 105.637 15.9092C105.637 14.1829 106.997 12.8677 109.129 12.8677C109.82 12.8196 110.509 12.9688 111.112 13.2966C111.715 13.6245 112.205 14.1165 112.52 14.7114L110.656 15.862C110.535 15.567 110.323 15.3147 110.05 15.1384C109.777 14.9621 109.454 14.8703 109.126 14.875C108.982 14.8611 108.837 14.8762 108.7 14.9194C108.563 14.9626 108.437 15.0328 108.33 15.1257C108.222 15.2185 108.136 15.332 108.077 15.4587C108.018 15.5855 107.986 15.7228 107.985 15.862C107.985 16.5524 108.428 16.8324 109.451 17.262L110.047 17.5087C112.074 18.3479 113.219 19.2027 113.219 21.1251C113.219 23.198 111.533 24.3337 109.268 24.3337C108.385 24.388 107.506 24.1946 106.735 23.7768C105.964 23.359 105.334 22.7346 104.922 21.9791L106.858 20.8906ZM98.4346 21.0901C98.8089 21.7315 99.1496 22.274 99.9689 22.274C100.752 22.274 101.247 21.9782 101.247 20.8276V12.999H103.631V20.8582C103.631 23.2417 102.181 24.3267 100.07 24.3267C99.3243 24.3661 98.5834 24.1866 97.9449 23.8118C97.3065 23.437 96.8005 22.8844 96.4934 22.2267L98.4346 21.0901Z" fill="white"/>
<path d="M158.514 7.14748C157.243 4.94868 155.52 3.20788 153.343 1.9247C151.165 0.641459 148.788 0 146.21 0C143.632 0 141.254 0.641655 139.077 1.9247C136.9 3.20782 135.176 4.94868 133.906 7.14748C132.635 9.34622 132 11.7473 132 14.3505C132 17.4776 132.903 20.2896 134.711 22.7872C136.518 25.285 138.852 27.0133 141.714 27.9725C142.047 28.0349 142.293 27.991 142.454 27.8418C142.614 27.6925 142.694 27.5054 142.694 27.2815C142.694 27.2441 142.691 26.9079 142.685 26.2725C142.678 25.637 142.675 25.0827 142.675 24.6097L142.25 24.684C141.979 24.7342 141.636 24.7555 141.223 24.7495C140.81 24.7437 140.381 24.6999 139.937 24.6186C139.493 24.5381 139.08 24.3512 138.697 24.0585C138.315 23.7657 138.044 23.3825 137.883 22.9095L137.698 22.4795C137.575 22.1932 137.381 21.8752 137.116 21.5266C136.85 21.1777 136.582 20.9412 136.311 20.8166L136.181 20.723C136.095 20.6607 136.015 20.5857 135.941 20.4985C135.867 20.4114 135.811 20.3243 135.774 20.2369C135.737 20.1496 135.768 20.0779 135.867 20.0217C135.966 19.9655 136.144 19.9382 136.404 19.9382L136.773 19.994C137.02 20.0439 137.325 20.1931 137.689 20.4424C138.053 20.6915 138.352 21.0153 138.587 21.4138C138.87 21.9247 139.212 22.314 139.613 22.5818C140.014 22.8497 140.418 22.9834 140.825 22.9834C141.232 22.9834 141.584 22.9523 141.88 22.8903C142.176 22.828 142.453 22.7343 142.712 22.6098C142.823 21.7749 143.126 21.1334 143.619 20.685C142.916 20.6104 142.284 20.498 141.723 20.3486C141.161 20.199 140.582 19.9562 139.983 19.6195C139.385 19.2833 138.889 18.8658 138.494 18.3677C138.099 17.8694 137.775 17.2152 137.523 16.4057C137.27 15.5958 137.143 14.6616 137.143 13.6028C137.143 12.0952 137.631 10.8123 138.605 9.7533C138.149 8.61987 138.192 7.34926 138.735 5.9416C139.092 5.82935 139.623 5.91358 140.326 6.19377C141.029 6.47408 141.544 6.71421 141.871 6.91331C142.198 7.11233 142.46 7.281 142.657 7.41778C143.805 7.09401 144.989 6.93209 146.21 6.93209C147.431 6.93209 148.615 7.09401 149.763 7.41778L150.466 6.96953C150.946 6.67043 151.514 6.39633 152.168 6.14717C152.821 5.89814 153.321 5.82955 153.667 5.94179C154.222 7.34952 154.271 8.62007 153.814 9.7535C154.789 10.8125 155.276 12.0957 155.276 13.603C155.276 14.6618 155.149 15.599 154.897 16.415C154.644 17.2312 154.318 17.8848 153.917 18.3771C153.516 18.8693 153.016 19.2836 152.418 19.6197C151.82 19.9561 151.24 20.1989 150.679 20.3485C150.117 20.4982 149.485 20.6106 148.782 20.6853C149.423 21.2457 149.744 22.1302 149.744 23.3385V27.281C149.744 27.5049 149.821 27.6919 149.975 27.8413C150.13 27.9905 150.373 28.0344 150.706 27.9719C153.568 27.0129 155.903 25.2845 157.71 22.7867C159.516 20.2891 160.42 17.4771 160.42 14.35C160.419 11.7471 159.784 9.34622 158.514 7.14748Z" fill="#B8B8B8"/>
<path d="M185.337 28C186.575 28 187.762 27.5084 188.637 26.6332C189.512 25.758 190.004 24.571 190.004 23.3334V18.6667H185.337C184.099 18.6667 182.912 19.1584 182.037 20.0335C181.162 20.9087 180.67 22.0957 180.67 23.3334C180.67 24.571 181.162 25.758 182.037 26.6332C182.912 27.5084 184.099 28 185.337 28Z" fill="#B8B8B8"/>
<path d="M180.67 14C180.67 12.7623 181.162 11.5753 182.037 10.7001C182.912 9.82498 184.099 9.33331 185.337 9.33331H190.004V18.6666H185.337C184.099 18.6666 182.912 18.175 182.037 17.2998C181.162 16.4246 180.67 15.2377 180.67 14Z" fill="#B8B8B8"/>
<path d="M180.67 4.66667C180.67 3.42962 181.161 2.24319 182.036 1.36812C182.91 0.493058 184.096 0.000966442 185.333 0L190 0V9.33333H185.337C184.099 9.33333 182.912 8.84167 182.037 7.9665C181.162 7.09133 180.67 5.90434 180.67 4.66667Z" fill="#B8B8B8"/>
<path d="M190.004 0H194.67C195.908 0 197.095 0.491665 197.97 1.36683C198.845 2.242 199.337 3.42899 199.337 4.66667C199.337 5.90434 198.845 7.09133 197.97 7.9665C197.095 8.84167 195.908 9.33333 194.67 9.33333H190.004V0Z" fill="#B8B8B8"/>
<path d="M199.337 14C199.337 15.2377 198.845 16.4246 197.97 17.2998C197.095 18.175 195.908 18.6666 194.67 18.6666C193.433 18.6666 192.246 18.175 191.37 17.2998C190.495 16.4246 190.004 15.2377 190.004 14C190.004 12.7623 190.495 11.5753 191.37 10.7001C192.246 9.82498 193.433 9.33331 194.67 9.33331C195.908 9.33331 197.095 9.82498 197.97 10.7001C198.845 11.5753 199.337 12.7623 199.337 14Z" fill="#B8B8B8"/>
<path d="M5.16422 23.8009L3.19897 1.75H24.801L22.8331 23.7974L13.9868 26.25L5.16422 23.8009Z" fill="#B8B8B8"/>
<path d="M14 24.3757L21.1488 22.3938L22.8305 3.55334H14V24.3757Z" fill="#B8B8B8"/>
<path d="M14 11.5421H17.5788L17.8255 8.77274H14V6.06812H14.0096H20.7812L20.7165 6.79349L20.0524 14.2467H14V11.5421Z" fill="white"/>
<path d="M14.0166 18.5658L14.0043 18.5693L10.9926 17.7555L10.8001 15.5986H9.33621H8.08496L8.46384 19.845L14.0035 21.3833L14.0166 21.3798V18.5658Z" fill="white"/>
<path d="M17.3486 14.1321L17.0231 17.7538L14.007 18.5675V21.3815L19.551 19.845L19.5921 19.3883L20.062 14.1321H17.3486Z" fill="white"/>
<path d="M14.0096 6.06812V7.74811V8.76574V8.77274H7.48562H7.47687L7.42262 8.16462L7.29925 6.79349L7.2345 6.06812H14.0096Z" fill="white"/>
<path d="M14 11.5421V13.2221V14.2397V14.2467H11.0347H11.0259L10.9717 13.6386L10.8492 12.2675L10.7844 11.5421H14Z" fill="white"/>
<path d="M48.8867 23.8009L46.8911 1.75H68.8189L66.8206 23.7974L57.8417 26.25L48.8867 23.8009Z" fill="#B8B8B8"/>
<path d="M57.855 24.3757L65.111 22.3938L66.8179 3.55334H57.855V24.3757Z" fill="#B8B8B8"/>
<path d="M57.855 11.7311H54.2226L53.9721 8.96177H57.855V6.25714H57.8452H50.972L51.0378 6.98339L51.7119 14.4358H57.855V11.7311Z" fill="white"/>
<path d="M57.8551 18.7548L57.8426 18.7583L54.7857 17.9454L54.5903 15.7885H53.1045H51.8345L52.219 20.034L57.8426 21.5723L57.8551 21.5688V18.7548Z" fill="white"/>
<path d="M57.8452 11.7311V14.4358H61.2254L60.9075 17.9436L57.8452 18.7574V21.5714L63.4733 20.034L63.5141 19.5773L64.1589 12.4574L64.2264 11.7311H63.4866H57.8452Z" fill="white"/>
<path d="M57.8452 6.25714V7.93714V8.95564V8.96177H64.4671H64.476L64.531 8.35452L64.6562 6.98339L64.722 6.25714H57.8452Z" fill="white"/>
</svg>
