<svg width="322" height="50" viewBox="0 0 322 50" fill="none" xmlns="http://www.w3.org/2000/svg">
<path d="M25.8721 5.73602L25.1041 11.784H16.8961V39H9.02413V11.784H0.432129V5.73602H25.8721Z" fill="#141414"/>
<path d="M41.906 12.696C44.114 12.696 45.842 13.368 47.09 14.712C48.338 16.056 48.962 17.944 48.962 20.376V39H41.378V21.672C41.378 20.392 41.17 19.512 40.754 19.032C40.338 18.52 39.746 18.264 38.978 18.264C37.442 18.264 35.97 19.352 34.562 21.528V39H26.978V3.38402L34.562 2.61602V16.248C35.618 15.064 36.738 14.184 37.922 13.608C39.106 13 40.434 12.696 41.906 12.696Z" fill="#141414"/>
<path d="M60.3451 13.512V39H52.7611V13.512H60.3451ZM56.5051 0.0720215C57.8171 0.0720215 58.8891 0.488022 59.7211 1.32002C60.5851 2.12002 61.0171 3.14402 61.0171 4.39202C61.0171 5.64002 60.5851 6.68002 59.7211 7.51202C58.8891 8.31202 57.8171 8.71202 56.5051 8.71202C55.1931 8.71202 54.1211 8.31202 53.2891 7.51202C52.4571 6.68002 52.0411 5.64002 52.0411 4.39202C52.0411 3.14402 52.4571 2.12002 53.2891 1.32002C54.1211 0.488022 55.1931 0.0720215 56.5051 0.0720215Z" fill="#141414"/>
<path d="M84.644 31.608C84.644 32.568 84.772 33.272 85.028 33.72C85.316 34.168 85.764 34.504 86.372 34.728L84.788 39.672C83.22 39.544 81.94 39.208 80.948 38.664C79.956 38.088 79.188 37.192 78.644 35.976C76.98 38.536 74.42 39.816 70.964 39.816C68.436 39.816 66.42 39.08 64.916 37.608C63.412 36.136 62.66 34.216 62.66 31.848C62.66 29.064 63.684 26.936 65.732 25.464C67.78 23.992 70.74 23.256 74.612 23.256H77.204V22.152C77.204 20.648 76.884 19.624 76.244 19.08C75.604 18.504 74.484 18.216 72.884 18.216C72.052 18.216 71.044 18.344 69.86 18.6C68.676 18.824 67.46 19.144 66.212 19.56L64.484 14.568C66.084 13.96 67.716 13.496 69.38 13.176C71.076 12.856 72.644 12.696 74.084 12.696C77.732 12.696 80.404 13.448 82.1 14.952C83.796 16.456 84.644 18.712 84.644 21.72V31.608ZM73.172 34.392C74.9 34.392 76.244 33.576 77.204 31.944V27.432H75.332C73.604 27.432 72.308 27.736 71.444 28.344C70.612 28.952 70.196 29.896 70.196 31.176C70.196 32.2 70.452 33 70.964 33.576C71.508 34.12 72.244 34.392 73.172 34.392Z" fill="#141414"/>
<path d="M111.768 15C110.104 15.672 107.656 16.008 104.424 16.008C106.088 16.712 107.304 17.576 108.072 18.6C108.84 19.624 109.224 20.952 109.224 22.584C109.224 24.216 108.792 25.688 107.928 27C107.064 28.28 105.816 29.288 104.184 30.024C102.584 30.76 100.696 31.128 98.5201 31.128C97.4961 31.128 96.5201 31.032 95.5921 30.84C95.3361 30.968 95.1281 31.176 94.9681 31.464C94.8401 31.72 94.7761 31.992 94.7761 32.28C94.7761 32.76 94.9521 33.144 95.3041 33.432C95.6881 33.688 96.4401 33.816 97.5601 33.816H101.4C103.352 33.816 105.064 34.136 106.536 34.776C108.008 35.416 109.144 36.296 109.944 37.416C110.744 38.536 111.144 39.8 111.144 41.208C111.144 43.864 109.992 45.928 107.688 47.4C105.416 48.904 102.12 49.656 97.8001 49.656C94.6961 49.656 92.2481 49.32 90.4561 48.648C88.6641 48.008 87.4001 47.096 86.6641 45.912C85.9601 44.728 85.6081 43.24 85.6081 41.448H92.4241C92.4241 42.216 92.5681 42.824 92.8561 43.272C93.1761 43.72 93.7361 44.056 94.5361 44.28C95.3361 44.504 96.4881 44.616 97.9921 44.616C100.072 44.616 101.512 44.36 102.312 43.848C103.112 43.368 103.512 42.664 103.512 41.736C103.512 40.968 103.208 40.36 102.6 39.912C101.992 39.464 101.08 39.24 99.8641 39.24H96.1681C93.5441 39.24 91.5761 38.776 90.2641 37.848C88.9841 36.888 88.3441 35.672 88.3441 34.2C88.3441 33.272 88.6161 32.376 89.1601 31.512C89.7041 30.616 90.4401 29.88 91.3681 29.304C89.7681 28.44 88.6001 27.432 87.8641 26.28C87.1601 25.096 86.8081 23.672 86.8081 22.008C86.8081 19.16 87.8321 16.904 89.8801 15.24C91.9281 13.544 94.6321 12.696 97.9921 12.696C100.552 12.76 102.712 12.504 104.472 11.928C106.264 11.352 108.104 10.504 109.992 9.38402L111.768 15ZM98.1841 17.688C97.0001 17.688 96.0561 18.072 95.3521 18.84C94.6801 19.576 94.3441 20.6 94.3441 21.912C94.3441 23.288 94.6801 24.36 95.3521 25.128C96.0561 25.864 97.0001 26.232 98.1841 26.232C99.4321 26.232 100.376 25.864 101.016 25.128C101.688 24.392 102.024 23.288 102.024 21.816C102.024 19.064 100.744 17.688 98.1841 17.688Z" fill="#141414"/>
<path d="M122.776 12.696C126.68 12.696 129.736 13.896 131.944 16.296C134.152 18.664 135.256 21.992 135.256 26.28C135.256 29 134.744 31.384 133.72 33.432C132.728 35.448 131.288 37.016 129.4 38.136C127.544 39.256 125.336 39.816 122.776 39.816C118.904 39.816 115.848 38.632 113.608 36.264C111.4 33.864 110.296 30.52 110.296 26.232C110.296 23.512 110.792 21.144 111.784 19.128C112.808 17.08 114.248 15.496 116.104 14.376C117.992 13.256 120.216 12.696 122.776 12.696ZM122.776 18.264C121.24 18.264 120.088 18.92 119.32 20.232C118.552 21.512 118.168 23.512 118.168 26.232C118.168 29.016 118.536 31.048 119.272 32.328C120.04 33.608 121.208 34.248 122.776 34.248C124.312 34.248 125.464 33.608 126.232 32.328C127 31.016 127.384 29 127.384 26.28C127.384 23.496 127 21.464 126.232 20.184C125.496 18.904 124.344 18.264 122.776 18.264Z" fill="#141414"/>
<path d="M165.173 21.384C167.381 21.8 169.173 22.616 170.549 23.832C171.957 25.048 172.661 26.872 172.661 29.304C172.661 32.856 171.381 35.368 168.821 36.84C166.293 38.28 162.741 39 158.165 39H147.461V5.73602H156.869C161.541 5.73602 165.109 6.40802 167.573 7.75202C170.037 9.06402 171.269 11.224 171.269 14.232C171.269 16.184 170.677 17.768 169.493 18.984C168.341 20.168 166.901 20.968 165.173 21.384ZM155.333 11.304V19.032H158.261C161.589 19.032 163.253 17.688 163.253 15C163.253 13.656 162.805 12.712 161.909 12.168C161.013 11.592 159.589 11.304 157.637 11.304H155.333ZM158.213 33.288C160.293 33.288 161.861 32.984 162.917 32.376C164.005 31.736 164.549 30.568 164.549 28.872C164.549 25.8 162.629 24.264 158.789 24.264H155.333V33.288H158.213Z" fill="#141414"/>
<path d="M195.278 31.608C195.278 32.568 195.406 33.272 195.662 33.72C195.95 34.168 196.398 34.504 197.006 34.728L195.422 39.672C193.854 39.544 192.574 39.208 191.582 38.664C190.59 38.088 189.822 37.192 189.278 35.976C187.614 38.536 185.054 39.816 181.598 39.816C179.07 39.816 177.054 39.08 175.55 37.608C174.046 36.136 173.294 34.216 173.294 31.848C173.294 29.064 174.318 26.936 176.366 25.464C178.414 23.992 181.374 23.256 185.246 23.256H187.838V22.152C187.838 20.648 187.518 19.624 186.878 19.08C186.238 18.504 185.118 18.216 183.518 18.216C182.686 18.216 181.678 18.344 180.494 18.6C179.31 18.824 178.094 19.144 176.846 19.56L175.118 14.568C176.718 13.96 178.35 13.496 180.014 13.176C181.71 12.856 183.278 12.696 184.718 12.696C188.366 12.696 191.038 13.448 192.734 14.952C194.43 16.456 195.278 18.712 195.278 21.72V31.608ZM183.806 34.392C185.534 34.392 186.878 33.576 187.838 31.944V27.432H185.966C184.238 27.432 182.942 27.736 182.078 28.344C181.246 28.952 180.83 29.896 180.83 31.176C180.83 32.2 181.086 33 181.598 33.576C182.142 34.12 182.878 34.392 183.806 34.392Z" fill="#141414"/>
<path d="M213.223 12.792C214.151 12.792 214.999 12.904 215.767 13.128L214.567 20.472C213.607 20.248 212.839 20.136 212.263 20.136C210.759 20.136 209.607 20.664 208.807 21.72C208.039 22.744 207.431 24.296 206.983 26.376V39H199.399V13.512H206.023L206.647 18.456C207.223 16.696 208.087 15.32 209.239 14.328C210.423 13.304 211.751 12.792 213.223 12.792Z" fill="#141414"/>
<path d="M231.193 12.696C234.233 12.696 236.569 13.896 238.201 16.296C239.833 18.664 240.649 21.992 240.649 26.28C240.649 28.904 240.233 31.24 239.401 33.288C238.601 35.336 237.433 36.936 235.897 38.088C234.393 39.24 232.601 39.816 230.521 39.816C229.145 39.816 227.881 39.528 226.729 38.952C225.609 38.376 224.649 37.576 223.849 36.552L223.465 39H216.745V3.38402L224.329 2.56802V16.104C225.097 15.048 226.073 14.216 227.257 13.608C228.473 13 229.785 12.696 231.193 12.696ZM228.313 34.296C231.289 34.296 232.777 31.624 232.777 26.28C232.777 23.24 232.425 21.144 231.721 19.992C231.017 18.84 229.993 18.264 228.649 18.264C226.953 18.264 225.513 19.256 224.329 21.24V31.848C224.809 32.616 225.385 33.224 226.057 33.672C226.761 34.088 227.513 34.296 228.313 34.296Z" fill="#141414"/>
<path d="M254.506 12.696C258.41 12.696 261.466 13.896 263.674 16.296C265.882 18.664 266.986 21.992 266.986 26.28C266.986 29 266.474 31.384 265.45 33.432C264.458 35.448 263.018 37.016 261.13 38.136C259.274 39.256 257.066 39.816 254.506 39.816C250.634 39.816 247.578 38.632 245.338 36.264C243.13 33.864 242.026 30.52 242.026 26.232C242.026 23.512 242.522 21.144 243.514 19.128C244.538 17.08 245.978 15.496 247.834 14.376C249.722 13.256 251.946 12.696 254.506 12.696ZM254.506 18.264C252.97 18.264 251.818 18.92 251.05 20.232C250.282 21.512 249.898 23.512 249.898 26.232C249.898 29.016 250.266 31.048 251.002 32.328C251.77 33.608 252.938 34.248 254.506 34.248C256.042 34.248 257.194 33.608 257.962 32.328C258.73 31.016 259.113 29 259.113 26.28C259.113 23.496 258.73 21.464 257.962 20.184C257.226 18.904 256.074 18.264 254.506 18.264Z" fill="#141414"/>
<path d="M278.553 12.696C280.377 12.696 282.089 12.968 283.689 13.512C285.289 14.056 286.697 14.824 287.913 15.816L285.129 20.088C283.049 18.776 280.953 18.12 278.841 18.12C277.849 18.12 277.081 18.296 276.537 18.648C276.025 18.968 275.769 19.432 275.769 20.04C275.769 20.52 275.881 20.92 276.105 21.24C276.361 21.528 276.857 21.832 277.593 22.152C278.329 22.472 279.465 22.856 281.001 23.304C283.657 24.072 285.625 25.08 286.905 26.328C288.217 27.544 288.873 29.24 288.873 31.416C288.873 33.144 288.377 34.648 287.385 35.928C286.393 37.176 285.033 38.136 283.305 38.808C281.577 39.48 279.657 39.816 277.545 39.816C275.401 39.816 273.401 39.48 271.545 38.808C269.721 38.136 268.169 37.208 266.889 36.024L270.585 31.896C272.729 33.56 274.985 34.392 277.353 34.392C278.505 34.392 279.401 34.184 280.041 33.768C280.713 33.352 281.049 32.76 281.049 31.992C281.049 31.384 280.921 30.904 280.665 30.552C280.409 30.2 279.913 29.88 279.177 29.592C278.441 29.272 277.273 28.888 275.673 28.44C273.145 27.704 271.257 26.68 270.009 25.368C268.761 24.056 268.137 22.424 268.137 20.472C268.137 19 268.553 17.688 269.385 16.536C270.249 15.352 271.465 14.424 273.033 13.752C274.633 13.048 276.473 12.696 278.553 12.696Z" fill="#141414"/>
<path d="M310.647 31.608C310.647 32.568 310.775 33.272 311.031 33.72C311.319 34.168 311.767 34.504 312.375 34.728L310.791 39.672C309.223 39.544 307.943 39.208 306.951 38.664C305.959 38.088 305.191 37.192 304.647 35.976C302.983 38.536 300.423 39.816 296.967 39.816C294.439 39.816 292.423 39.08 290.919 37.608C289.415 36.136 288.663 34.216 288.663 31.848C288.663 29.064 289.687 26.936 291.735 25.464C293.783 23.992 296.743 23.256 300.615 23.256H303.207V22.152C303.207 20.648 302.887 19.624 302.247 19.08C301.607 18.504 300.487 18.216 298.887 18.216C298.055 18.216 297.047 18.344 295.863 18.6C294.679 18.824 293.463 19.144 292.215 19.56L290.487 14.568C292.087 13.96 293.719 13.496 295.383 13.176C297.079 12.856 298.647 12.696 300.087 12.696C303.735 12.696 306.407 13.448 308.103 14.952C309.799 16.456 310.647 18.712 310.647 21.72V31.608ZM299.175 34.392C300.903 34.392 302.247 33.576 303.207 31.944V27.432H301.335C299.607 27.432 298.311 27.736 297.447 28.344C296.615 28.952 296.199 29.896 296.199 31.176C296.199 32.2 296.455 33 296.967 33.576C297.511 34.12 298.247 34.392 299.175 34.392Z" fill="#141414"/>
<path d="M317.552 31.128C318.736 31.128 319.744 31.56 320.576 32.424C321.44 33.256 321.872 34.264 321.872 35.448C321.872 36.664 321.44 37.704 320.576 38.568C319.744 39.4 318.736 39.816 317.552 39.816C316.336 39.816 315.296 39.4 314.432 38.568C313.6 37.704 313.184 36.664 313.184 35.448C313.184 34.264 313.6 33.256 314.432 32.424C315.296 31.56 316.336 31.128 317.552 31.128Z" fill="#6741D2"/>
</svg>
