<svg width="32" height="32" viewBox="0 0 32 32" fill="none" xmlns="http://www.w3.org/2000/svg">
<path d="M0.999992 16C0.999992 13.0333 1.87973 10.1332 3.52795 7.66645C5.17617 5.19972 7.51885 3.27713 10.2597 2.14181C13.0006 1.0065 16.0166 0.709449 18.9263 1.28823C21.8361 1.86701 24.5088 3.29562 26.6066 5.3934C28.7044 7.49119 30.133 10.1639 30.7118 13.0737C31.2906 15.9834 30.9935 18.9994 29.8582 21.7403C28.7229 24.4812 26.8003 26.8238 24.3335 28.4721C21.8668 30.1203 18.9667 31 16 31C12.0217 31 8.20644 29.4197 5.39339 26.6066C2.58034 23.7936 0.999992 19.9783 0.999992 16ZM29 16C29 13.4288 28.2376 10.9154 26.8091 8.77759C25.3806 6.63975 23.3503 4.97351 20.9749 3.98957C18.5994 3.00563 15.9856 2.74819 13.4638 3.2498C10.9421 3.75141 8.62569 4.98954 6.8076 6.80762C4.98952 8.6257 3.75139 10.9421 3.24978 13.4638C2.74818 15.9856 3.00562 18.5995 3.98956 20.9749C4.9735 23.3503 6.63974 25.3807 8.77758 26.8091C10.9154 28.2376 13.4288 29 16 29C19.4478 29 22.7544 27.6304 25.1924 25.1924C27.6304 22.7544 29 19.4478 29 16Z" fill="#6741D2"/>
<path d="M9.20005 19.4L15.2 11.4C15.2932 11.2758 15.414 11.175 15.5528 11.1056C15.6917 11.0361 15.8448 11 16 11C16.1553 11 16.3084 11.0361 16.4473 11.1056C16.5861 11.175 16.7069 11.2758 16.8 11.4L22.8 19.4L21.2 20.6L16 13.67L10.8 20.6L9.20005 19.4Z" fill="#6741D2"/>
</svg>
