<svg width="28" height="28" viewBox="0 0 28 28" fill="none" xmlns="http://www.w3.org/2000/svg">
<g clip-path="url(#clip0_43_65)">
<mask id="mask0_43_65" style="mask-type:luminance" maskUnits="userSpaceOnUse" x="0" y="0" width="28" height="28">
<path d="M28 0H0V28H28V0Z" fill="white"/>
</mask>
<g mask="url(#mask0_43_65)">
<path fill-rule="evenodd" clip-rule="evenodd" d="M14 28C6.26803 28 0 21.732 0 14C0 6.26803 6.26803 0 14 0C21.732 0 28 6.26803 28 14C28 21.732 21.732 28 14 28ZM14.4615 21.789C19.0514 21.7871 22.7844 18.0532 22.7862 13.4642C22.7872 11.2398 21.922 9.1483 20.3503 7.57482C18.7785 6.00127 16.6883 5.1343 14.4614 5.13333C9.8728 5.13333 6.1383 8.86766 6.13643 13.4576C6.13585 14.9249 6.51916 16.357 7.24768 17.6195L6.06667 21.9333L10.4798 20.7757C11.6957 21.4389 13.0647 21.7885 14.458 21.789H14.4615Z" fill="black"/>
<path fill-rule="evenodd" clip-rule="evenodd" d="M10.6842 19.2686L8.06542 19.9556L8.76443 17.4023L8.59993 17.1405C7.90728 16.0388 7.54147 14.7656 7.54199 13.4582C7.54351 9.64317 10.6475 6.53943 14.4642 6.53943C16.3123 6.54007 18.0496 7.26072 19.356 8.56861C20.6623 9.8765 21.3813 11.6149 21.3806 13.4638C21.3791 17.2791 18.2752 20.3831 14.4614 20.3831H14.4586C13.217 20.3826 11.9992 20.049 10.9369 19.4186L10.6842 19.2686ZM18.6554 15.4438C18.6035 15.3571 18.4648 15.3051 18.2568 15.2009C18.0488 15.0968 17.0261 14.5936 16.8354 14.5242C16.6448 14.4547 16.506 14.4201 16.3674 14.6282C16.2288 14.8365 15.8301 15.3051 15.7088 15.4438C15.5874 15.5827 15.4661 15.6001 15.2582 15.4959C15.0501 15.3918 14.3799 15.1722 13.5854 14.4635C12.967 13.9119 12.5495 13.2308 12.4282 13.0225C12.3068 12.8143 12.4153 12.7017 12.5194 12.598C12.613 12.5048 12.7274 12.355 12.8314 12.2336C12.9354 12.1121 12.9701 12.0253 13.0394 11.8866C13.1087 11.7477 13.0741 11.6263 13.0221 11.5221C12.9701 11.418 12.5541 10.3942 12.3807 9.97765C12.2119 9.57206 12.0404 9.62701 11.9127 9.6206C11.7915 9.61453 11.6527 9.61325 11.5141 9.61325C11.3754 9.61325 11.15 9.66528 10.9594 9.87353C10.7687 10.0818 10.2313 10.585 10.2313 11.6088C10.2313 12.6327 10.9767 13.6218 11.0807 13.7606C11.1847 13.8995 12.5475 16.0005 14.6341 16.9015C15.1304 17.1158 15.5178 17.2438 15.82 17.3396C16.3182 17.498 16.7717 17.4756 17.1301 17.422C17.5298 17.3624 18.3607 16.9189 18.5342 16.4331C18.7074 15.9471 18.7074 15.5306 18.6554 15.4438Z" fill="black"/>
</g>
</g>
<defs>
<clipPath id="clip0_43_65">
<rect width="28" height="28" fill="white"/>
</clipPath>
</defs>
</svg>
