<svg width="29" height="29" viewBox="0 0 29 29" fill="none" xmlns="http://www.w3.org/2000/svg">
<path d="M14.4006 0.75H14.3933C6.67411 0.75 0.396973 7.02886 0.396973 14.75C0.396973 17.8125 1.38382 20.6513 3.0621 22.9559L1.31758 28.1564L6.69899 26.4364C8.9125 27.903 11.5532 28.75 14.4006 28.75C22.1198 28.75 28.397 22.4692 28.397 14.75C28.397 7.03073 22.1198 0.75 14.4006 0.75Z" fill="#5ACF5F"/>
<path d="M22.5465 20.5195C22.2087 21.4736 20.8682 22.2643 19.7991 22.4957C19.0673 22.6511 18.112 22.7757 14.8958 21.442C10.7812 19.7376 8.13179 15.5567 7.92555 15.2855C7.72752 15.0142 6.26294 13.072 6.26294 11.0627C6.26294 9.05376 7.28306 8.07531 7.69449 7.65569C8.03192 7.31062 8.59027 7.15344 9.1258 7.15344C9.29912 7.15344 9.45473 7.16199 9.59502 7.16907C10.0062 7.18674 10.2125 7.21102 10.484 7.86032C10.8217 8.67422 11.644 10.6831 11.7423 10.8898C11.8421 11.0963 11.9415 11.3761 11.8017 11.6473C11.6702 11.9274 11.5549 12.0516 11.3484 12.2895C11.1418 12.5278 10.9456 12.7097 10.7393 12.965C10.5504 13.1872 10.3368 13.4253 10.5749 13.8367C10.8129 14.2392 11.6352 15.5811 12.8461 16.6592C14.4092 18.0504 15.6759 18.495 16.1293 18.6841C16.4671 18.8242 16.8695 18.7907 17.116 18.5283C17.4293 18.1904 17.8165 17.6305 18.21 17.0794C18.4899 16.6839 18.8434 16.6348 19.2145 16.7747C19.5924 16.906 21.5926 17.8949 22.0039 18.0996C22.415 18.3061 22.6866 18.404 22.7863 18.5774C22.8843 18.7503 22.8843 19.5642 22.5465 20.5195Z" fill="#FCFCFC"/>
</svg>
