<svg width="36" height="36" viewBox="0 0 36 36" fill="none" xmlns="http://www.w3.org/2000/svg">
<g clip-path="url(#clip0_14_109)">
<path fill-rule="evenodd" clip-rule="evenodd" d="M18 36C8.0589 36 0 27.9411 0 18C0 8.0589 8.0589 0 18 0C27.9411 0 36 8.0589 36 18C36 27.9411 27.9411 36 18 36ZM18.5933 28.0144C24.4946 28.012 29.2942 23.2112 29.2966 17.3111C29.2978 14.4512 28.1855 11.7621 26.1646 9.73905C24.1438 7.71593 21.4564 6.60124 18.5932 6.6C12.6936 6.6 7.8921 11.4013 7.8897 17.3026C7.88895 19.1891 8.38177 21.0304 9.31845 22.6536L7.8 28.2L13.474 26.7116C15.0373 27.5643 16.7975 28.0138 18.5889 28.0144H18.5933Z" fill="#FAFAFA"/>
<path fill-rule="evenodd" clip-rule="evenodd" d="M13.7369 24.774L10.3699 25.6572L11.2686 22.3743L11.0571 22.0377C10.1665 20.6214 9.69623 18.9843 9.6969 17.3034C9.69885 12.3984 13.6897 8.40784 18.5968 8.40784C20.973 8.40866 23.2067 9.33521 24.8863 11.0168C26.5659 12.6984 27.4903 14.9334 27.4894 17.3106C27.4874 22.2159 23.4967 26.2068 18.5933 26.2068H18.5897C16.9933 26.2062 15.4276 25.7773 14.0618 24.9668L13.7369 24.774ZM23.9856 19.8564C23.9188 19.7448 23.7405 19.6779 23.473 19.544C23.2056 19.4101 21.8908 18.7632 21.6456 18.6739C21.4005 18.5847 21.2221 18.5401 21.0439 18.8077C20.8656 19.0755 20.353 19.6779 20.197 19.8564C20.041 20.0349 19.885 20.0572 19.6177 19.9233C19.3502 19.7895 18.4885 19.5071 17.467 18.5959C16.6719 17.8867 16.1351 17.011 15.9791 16.7433C15.8231 16.4755 15.9626 16.3308 16.0964 16.1974C16.2167 16.0776 16.3639 15.885 16.4976 15.7289C16.6313 15.5727 16.6759 15.4611 16.765 15.2828C16.8541 15.1042 16.8096 14.9481 16.7427 14.8142C16.6759 14.6803 16.141 13.3639 15.9181 12.8284C15.701 12.3069 15.4806 12.3776 15.3164 12.3693C15.1606 12.3615 14.9822 12.3599 14.8039 12.3599C14.6256 12.3599 14.3358 12.4268 14.0907 12.6945C13.8455 12.9623 13.1546 13.6093 13.1546 14.9256C13.1546 16.242 14.113 17.5137 14.2467 17.6922C14.3804 17.8707 16.1325 20.572 18.8153 21.7305C19.4534 22.006 19.9515 22.1706 20.34 22.2938C20.9806 22.4974 21.5637 22.4687 22.0244 22.3998C22.5383 22.323 23.6067 21.7529 23.8297 21.1282C24.0524 20.5034 24.0524 19.9679 23.9856 19.8564Z" fill="#FAFAFA"/>
</g>
<defs>
<clipPath id="clip0_14_109">
<rect width="36" height="36" fill="white"/>
</clipPath>
</defs>
</svg>
